<svg width="48" height="48" viewBox="0 0 48 48" fill="none" xmlns="http://www.w3.org/2000/svg">
<g filter="url(#filter0_d)">
<path d="M29 6H19C11.8203 6 6 11.8203 6 19V29C6 36.1797 11.8203 42 19 42H29C36.1797 42 42 36.1797 42 29V19C42 11.8203 36.1797 6 29 6Z" fill="#00A7FD"/>
<g clip-path="url(#clip0)">
<path d="M16 27H32C32.2652 27 32.5196 26.8946 32.7071 26.7071C32.8946 26.5196 33 26.2652 33 26C33 25.7348 32.8946 25.4804 32.7071 25.2929C32.5196 25.1054 32.2652 25 32 25H16C15.7348 25 15.4804 25.1054 15.2929 25.2929C15.1054 25.4804 15 25.7348 15 26C15 26.2652 15.1054 26.5196 15.2929 26.7071C15.4804 26.8946 15.7348 27 16 27V27ZM16 31H32C32.2652 31 32.5196 30.8946 32.7071 30.7071C32.8946 30.5196 33 30.2652 33 30C33 29.7348 32.8946 29.4804 32.7071 29.2929C32.5196 29.1054 32.2652 29 32 29H16C15.7348 29 15.4804 29.1054 15.2929 29.2929C15.1054 29.4804 15 29.7348 15 30C15 30.2652 15.1054 30.5196 15.2929 30.7071C15.4804 30.8946 15.7348 31 16 31V31ZM16 23H32C32.2652 23 32.5196 22.8946 32.7071 22.7071C32.8946 22.5196 33 22.2652 33 22C33 21.7348 32.8946 21.4804 32.7071 21.2929C32.5196 21.1054 32.2652 21 32 21H16C15.7348 21 15.4804 21.1054 15.2929 21.2929C15.1054 21.4804 15 21.7348 15 22C15 22.2652 15.1054 22.5196 15.2929 22.7071C15.4804 22.8946 15.7348 23 16 23V23ZM15 18C15 18.2652 15.1054 18.5196 15.2929 18.7071C15.4804 18.8946 15.7348 19 16 19H32C32.2652 19 32.5196 18.8946 32.7071 18.7071C32.8946 18.5196 33 18.2652 33 18C33 17.7348 32.8946 17.4804 32.7071 17.2929C32.5196 17.1054 32.2652 17 32 17H16C15.7348 17 15.4804 17.1054 15.2929 17.2929C15.1054 17.4804 15 17.7348 15 18V18Z" fill="white"/>
</g>
</g>
<defs>
<filter id="filter0_d" x="0" y="0" width="48" height="48" filterUnits="userSpaceOnUse" color-interpolation-filters="sRGB">
<feFlood flood-opacity="0" result="BackgroundImageFix"/>
<feColorMatrix in="SourceAlpha" type="matrix" values="0 0 0 0 0 0 0 0 0 0 0 0 0 0 0 0 0 0 127 0"/>
<feOffset/>
<feGaussianBlur stdDeviation="3"/>
<feColorMatrix type="matrix" values="0 0 0 0 0 0 0 0 0 0.756863 0 0 0 0 0.992157 0 0 0 0.8 0"/>
<feBlend mode="normal" in2="BackgroundImageFix" result="effect1_dropShadow"/>
<feBlend mode="normal" in="SourceGraphic" in2="effect1_dropShadow" result="shape"/>
</filter>
<clipPath id="clip0">
<rect width="18" height="14" fill="white" transform="translate(15 17)"/>
</clipPath>
</defs>
</svg>
