<svg width="51" height="51" viewBox="0 0 51 51" fill="none" xmlns="http://www.w3.org/2000/svg">
<g filter="url(#filter0_d)">
<path d="M32.8333 6H21.1667C12.7903 6 6 12.7903 6 21.1667V32.8333C6 41.2097 12.7903 48 21.1667 48H32.8333C41.2097 48 48 41.2097 48 32.8333V21.1667C48 12.7903 41.2097 6 32.8333 6Z" fill="#00A7FD"/>
<g clip-path="url(#clip0)">
<path d="M17.6667 30.5H36.3333C36.6428 30.5 36.9395 30.3771 37.1583 30.1583C37.3771 29.9395 37.5 29.6427 37.5 29.3333C37.5 29.0239 37.3771 28.7272 37.1583 28.5084C36.9395 28.2896 36.6428 28.1667 36.3333 28.1667H17.6667C17.3572 28.1667 17.0605 28.2896 16.8417 28.5084C16.6229 28.7272 16.5 29.0239 16.5 29.3333C16.5 29.6427 16.6229 29.9395 16.8417 30.1583C17.0605 30.3771 17.3572 30.5 17.6667 30.5V30.5ZM17.6667 35.1667H36.3333C36.6428 35.1667 36.9395 35.0437 37.1583 34.825C37.3771 34.6062 37.5 34.3094 37.5 34C37.5 33.6906 37.3771 33.3938 37.1583 33.175C36.9395 32.9562 36.6428 32.8333 36.3333 32.8333H17.6667C17.3572 32.8333 17.0605 32.9562 16.8417 33.175C16.6229 33.3938 16.5 33.6906 16.5 34C16.5 34.3094 16.6229 34.6062 16.8417 34.825C17.0605 35.0437 17.3572 35.1667 17.6667 35.1667V35.1667ZM17.6667 25.8333H36.3333C36.6428 25.8333 36.9395 25.7104 37.1583 25.4916C37.3771 25.2728 37.5 24.9761 37.5 24.6667C37.5 24.3572 37.3771 24.0605 37.1583 23.8417C36.9395 23.6229 36.6428 23.5 36.3333 23.5H17.6667C17.3572 23.5 17.0605 23.6229 16.8417 23.8417C16.6229 24.0605 16.5 24.3572 16.5 24.6667C16.5 24.9761 16.6229 25.2728 16.8417 25.4916C17.0605 25.7104 17.3572 25.8333 17.6667 25.8333V25.8333ZM16.5 20C16.5 20.3094 16.6229 20.6062 16.8417 20.825C17.0605 21.0437 17.3572 21.1667 17.6667 21.1667H36.3333C36.6428 21.1667 36.9395 21.0437 37.1583 20.825C37.3771 20.6062 37.5 20.3094 37.5 20C37.5 19.6906 37.3771 19.3938 37.1583 19.175C36.9395 18.9562 36.6428 18.8333 36.3333 18.8333H17.6667C17.3572 18.8333 17.0605 18.9562 16.8417 19.175C16.6229 19.3938 16.5 19.6906 16.5 20V20Z" fill="white"/>
</g>
</g>
<defs>
<filter id="filter0_d" x="0" y="0" width="54" height="54" filterUnits="userSpaceOnUse" color-interpolation-filters="sRGB">
<feFlood flood-opacity="0" result="BackgroundImageFix"/>
<feColorMatrix in="SourceAlpha" type="matrix" values="0 0 0 0 0 0 0 0 0 0 0 0 0 0 0 0 0 0 127 0"/>
<feOffset/>
<feGaussianBlur stdDeviation="3"/>
<feColorMatrix type="matrix" values="0 0 0 0 0 0 0 0 0 0.756863 0 0 0 0 0.992157 0 0 0 0.8 0"/>
<feBlend mode="normal" in2="BackgroundImageFix" result="effect1_dropShadow"/>
<feBlend mode="normal" in="SourceGraphic" in2="effect1_dropShadow" result="shape"/>
</filter>
<clipPath id="clip0">
<rect width="21" height="16.3333" fill="white" transform="translate(16.5 18.8333)"/>
</clipPath>
</defs>
</svg>
